<svg width="60" height="58" viewBox="0 0 60 58" fill="none" xmlns="http://www.w3.org/2000/svg">
<path d="M42.8799 0H16.3433C7.33162 0 0 7.07955 0 15.781V41.4041C0 50.1058 7.33162 57.1851 16.3433 57.1851H42.8799C51.8923 57.1851 59.2239 50.1055 59.2239 41.4041V15.781C59.2243 7.07955 51.8923 0 42.8799 0ZM53.9697 41.4041C53.9697 47.3082 48.9949 52.1113 42.8803 52.1113H16.3433C10.229 52.1117 5.25464 47.3082 5.25464 41.4041V15.781C5.25464 9.87721 10.229 5.07374 16.3433 5.07374H42.8799C48.9946 5.07374 53.9693 9.87721 53.9693 15.781V41.4041H53.9697Z" fill="white"/>
<path d="M29.612 13.8579C21.1972 13.8579 14.3514 20.468 14.3514 28.5931C14.3514 36.7178 21.1972 43.3275 29.612 43.3275C38.0267 43.3275 44.8725 36.7178 44.8725 28.5931C44.8725 20.468 38.0267 13.8579 29.612 13.8579ZM29.612 38.2534C24.0949 38.2534 19.6061 33.9198 19.6061 28.5927C19.6061 23.2653 24.0946 18.9313 29.612 18.9313C35.1293 18.9313 39.6178 23.2653 39.6178 28.5927C39.6178 33.9198 35.129 38.2534 29.612 38.2534Z" fill="white"/>
<path d="M45.5125 9.55566C44.5001 9.55566 43.5056 9.95142 42.7906 10.6448C42.0721 11.3349 41.6591 12.2955 41.6591 13.2764C41.6591 14.2543 42.0725 15.2146 42.7906 15.908C43.5052 16.5981 44.5001 16.9972 45.5125 16.9972C46.5284 16.9972 47.5197 16.5981 48.2379 15.908C48.956 15.2146 49.3659 14.254 49.3659 13.2764C49.3659 12.2955 48.956 11.3349 48.2379 10.6448C47.5232 9.95142 46.5284 9.55566 45.5125 9.55566Z" fill="white"/>
</svg>
