<svg width="75" height="61" viewBox="0 0 75 61" fill="none" xmlns="http://www.w3.org/2000/svg">
<path d="M68.1761 60.6963C69.8589 60.6963 71.317 60.1229 72.5565 58.9908L51.3473 37.104C50.8384 37.48 50.3452 37.8457 49.8793 38.1934C48.2921 39.4001 47.0039 40.3417 46.0147 41.0165C45.0257 41.6928 43.7098 42.3821 42.0671 43.0859C40.4234 43.7905 38.892 44.1417 37.4715 44.1417H37.4299H37.3883C35.9676 44.1417 34.4362 43.7906 32.7926 43.0859C31.149 42.3821 29.8331 41.6928 28.845 41.0165C27.856 40.3417 26.5685 39.4002 24.9804 38.1934C24.5379 37.8586 24.0471 37.4913 23.5165 37.0981L2.30322 58.9908C3.54262 60.1229 5.00166 60.6963 6.68427 60.6963H68.1761Z" fill="white"/>
<path d="M4.21972 23.3217C2.63265 22.2298 1.22526 20.9793 0 19.5708V52.8698L18.6937 33.5796C14.9539 30.8854 10.1354 27.47 4.21972 23.3217Z" fill="white"/>
<path d="M70.6831 23.3221C64.9931 27.2963 60.157 30.7176 56.1743 33.5878L74.8606 52.8711V19.5713C73.6625 20.9515 72.2702 22.2011 70.6831 23.3221Z" fill="white"/>
<path d="M68.1771 0H6.68522C4.53995 0 2.89064 0.747535 1.73523 2.24106C0.578872 3.73529 0.00164509 5.60399 0.00164509 7.84505C0.00164509 9.65527 0.767657 11.6167 2.299 13.7298C3.83034 15.8421 5.45982 17.5013 7.18661 18.7082C8.13325 19.3983 10.988 21.4463 15.7508 24.8513C18.3219 26.6898 20.5578 28.2923 22.4793 29.6752C24.117 30.8527 25.5294 31.8725 26.6956 32.7188C26.8295 32.8157 27.04 32.9711 27.3194 33.1772C27.6205 33.4004 28.0014 33.6836 28.4714 34.0338C29.3765 34.7092 30.1284 35.2552 30.7272 35.6723C31.3252 36.0896 32.0498 36.5556 32.8998 37.0731C33.7491 37.59 34.5502 37.9786 35.3021 38.2371C36.0541 38.4954 36.7502 38.625 37.3907 38.625H37.4322H37.4738C38.1141 38.625 38.8104 38.4954 39.5626 38.2371C40.3143 37.9786 41.1147 37.5908 41.9647 37.0731C42.8139 36.5556 43.5375 36.0886 44.1374 35.6723C44.7363 35.2552 45.4881 34.7093 46.3933 34.0338C46.8624 33.6836 47.2433 33.4002 47.5444 33.178C47.824 32.9709 48.0344 32.8165 48.1691 32.7188C49.0775 32.0665 50.4932 31.0509 52.3965 29.6871C55.8599 27.204 60.9605 23.5492 67.7197 18.7082C69.7526 17.243 71.451 15.4748 72.816 13.4063C74.1785 11.3377 74.8616 9.1679 74.8616 6.89752C74.8616 5.00063 74.1993 3.37751 72.8776 2.02564C71.5543 0.675447 69.9873 0 68.1771 0Z" fill="white"/>
</svg>
