<svg width="63" height="61" viewBox="0 0 63 61" fill="none" xmlns="http://www.w3.org/2000/svg">
<path d="M62.1148 47.5054C62.2465 48.4832 61.939 49.3334 61.1937 50.056L52.4439 58.4727C52.0492 58.8978 51.534 59.2595 50.898 59.5568C50.2621 59.8544 49.6372 60.0457 49.0234 60.1306C48.9795 60.1306 48.8476 60.1416 48.6282 60.1628C48.4093 60.184 48.1242 60.1948 47.7733 60.1948C46.9398 60.1948 45.591 60.0567 43.727 59.7802C41.8631 59.5038 39.5825 58.8236 36.8854 57.7397C34.1877 56.6557 31.1287 55.0295 27.7078 52.8617C24.2869 50.694 20.6466 47.718 16.787 43.9345C13.7169 41.0013 11.1731 38.1956 9.15559 35.5175C7.1381 32.8393 5.51533 30.3631 4.28729 28.0887C3.05914 25.8144 2.13811 23.7527 1.52409 21.9035C0.910066 20.0543 0.493409 18.4601 0.274116 17.1211C0.0548233 15.782 -0.032894 14.7299 0.0109647 13.9647C0.0548233 13.1995 0.0767526 12.7744 0.0767526 12.6894C0.16447 12.0942 0.361834 11.4884 0.668844 10.872C0.975854 10.2556 1.34865 9.75613 1.78724 9.37354L10.537 0.892718C11.1511 0.297573 11.8528 0 12.6422 0C13.2124 0 13.7168 0.159414 14.1554 0.478242C14.594 0.79707 14.9668 1.19029 15.2738 1.65791L22.3131 14.6023C22.7078 15.2825 22.8174 16.0264 22.642 16.8341C22.4666 17.6418 22.0938 18.322 21.5236 18.8746L18.3 21.9991C18.2123 22.0842 18.1355 22.2223 18.0697 22.4136C18.004 22.6049 17.9711 22.7643 17.9711 22.8918C18.1465 23.7846 18.5412 24.8048 19.1553 25.9526C19.6816 26.9728 20.4929 28.2163 21.5894 29.6829C22.6859 31.1495 24.2428 32.8392 26.2603 34.7521C28.234 36.7078 29.9883 38.2274 31.5234 39.3116C33.0581 40.3952 34.3414 41.1926 35.3721 41.7027C36.4028 42.2128 37.1922 42.521 37.7403 42.627L38.5625 42.7865C38.6502 42.7865 38.7931 42.7545 38.9902 42.6909C39.1876 42.627 39.3301 42.5527 39.4179 42.4676L43.1677 38.7692C43.9576 38.0891 44.8782 37.749 45.9309 37.749C46.6768 37.749 47.2685 37.8764 47.7071 38.1316H47.7728L60.4697 45.4009C61.3911 45.9539 61.9392 46.6552 62.1148 47.5054Z" fill="white"/>
</svg>
