<svg width="83" height="45" viewBox="0 0 83 45" fill="none" xmlns="http://www.w3.org/2000/svg">
<path fill-rule="evenodd" clip-rule="evenodd" d="M70.6435 28.5195C73.3662 31.0863 76.24 33.5013 78.6821 36.3269C79.7608 37.5826 80.7821 38.8784 81.5634 40.3356C82.6705 42.4071 81.6678 44.6867 79.7441 44.8104L67.7861 44.8052C64.702 45.0523 62.2416 43.8534 60.1728 41.8173C58.5172 40.189 56.984 38.456 55.3921 36.7727C54.7394 36.0847 54.0563 35.4374 53.2402 34.9257C51.6078 33.9025 50.1909 34.2158 49.258 35.8597C48.3079 37.5318 48.0924 39.3833 47.9991 41.2467C47.871 43.9656 47.0199 44.6804 44.1914 44.8049C38.1466 45.0802 32.4098 44.1971 27.0805 41.2527C22.382 38.657 18.7385 34.9926 15.5672 30.8441C9.39273 22.7661 4.66429 13.8897 0.414543 4.76459C-0.54204 2.70869 0.15753 1.6051 2.50678 1.56604C6.40782 1.49287 10.3083 1.49808 14.2139 1.56083C15.7994 1.58323 16.8491 2.46131 17.4613 3.9076C19.5718 8.91856 22.1544 13.686 25.396 18.1051C26.2593 19.2816 27.1396 20.4581 28.3931 21.2862C29.7798 22.2031 30.8356 21.8992 31.488 20.4076C31.902 19.4618 32.0832 18.4431 32.1765 17.4301C32.4856 13.9451 32.5263 10.4661 31.9842 6.99339C31.6514 4.82604 30.3871 3.42298 28.1474 3.01285C27.0044 2.80374 27.1746 2.39309 27.728 1.76317C28.6892 0.67676 29.5932 0.000488281 31.3952 0.000488281H44.9096C47.0371 0.405938 47.5096 1.32881 47.8009 3.3959L47.8125 17.8908C47.7893 18.691 48.2265 21.0656 49.7192 21.5953C50.9139 21.9724 51.7014 21.0495 52.4182 20.318C55.6539 17.002 57.9633 13.0832 60.0264 9.02533C60.942 7.24103 61.7292 5.388 62.4922 3.53652C63.0574 2.16263 63.9444 1.48662 65.5472 1.51656L78.554 1.52776C78.9396 1.52776 79.3299 1.53323 79.7034 1.59495C81.8951 1.95561 82.4957 2.86598 81.8188 4.93255C80.7522 8.17485 78.6769 10.8768 76.6478 13.5913C74.4787 16.4893 72.1589 19.2881 70.0078 22.2034C68.0315 24.8655 68.1885 26.2073 70.6435 28.5195Z" fill="white"/>
</svg>
